# Rhino

v 0.02345900051295757 0.3229910135269165 0.05883700028061867
v 0.02292400039732456 0.004391000140458345 -0.02660799957811832
v 0.02171400003135204 0.005415000021457672 -0.03497200086712837
v 0.02135699987411499 0.3260959982872009 0.05115099996328354
v 0.02088000066578388 0.3125649988651276 0.04778699949383736
v 0.02028300054371357 0.3309769928455353 0.0530490018427372
v 0.01965500041842461 0.3209730088710785 0.06637100130319595
v 0.0192670002579689 0.002450000029057264 -0.01936499960720539
v 0.01837899908423424 0.2083179950714111 0.02737200073897839
v 0.01789999939501286 0.2829529941082001 0.04149400070309639
v 0.01784400083124638 0.3196280002593994 0.05711900070309639
v 0.01784100010991097 0.3210799992084503 0.03871599957346916
v 0.01778100058436394 -0.004860999993979931 -0.0355600006878376
v 0.01760400086641312 0.3332839906215668 0.04248899966478348
v 0.017578000202775 0.3345629870891571 0.06108300015330315
v 0.01730999909341335 0.2570259869098663 0.04026700183749199
v 0.01730999909341335 0.01530299987643957 -0.02450199984014034
v 0.01704199984669685 0.1295229941606522 0.006064999848604202
v 0.01650699973106384 -0.003488000016659498 -0.02965299971401691
v 0.01624099910259247 0.3050859868526459 0.05299000069499016
v 0.01611199975013733 0.2452320009469986 0.03237000107765198
v 0.01597199961543083 0.02930299937725067 -0.02094499953091145
v 0.01596600003540516 0.2070370018482208 0.03215200081467629
v 0.01571100018918514 0.005872999783605337 -0.04122100025415421
v 0.01557600032538176 0.3184239864349365 0.06161100044846535
v 0.01538299955427647 0.3333980143070221 0.06542900204658508
v 0.01527700014412403 0.3382369875907898 0.05775099992752075
v 0.01518800016492605 0.2558999955654144 0.04446899890899658
v 0.01518800016492605 0.0141770001500845 -0.0203000009059906
v 0.0151589997112751 0.01911300048232079 -0.0276929996907711
v 0.0149940000846982 0.1284359991550446 0.01012099999934435
v 0.01480000000447035 0.04291300103068352 -0.02111900039017201
v 0.01464499998837709 -0.006049000192433596 -0.04215399920940399
v 0.01463599968701601 0.06277099996805191 -0.01217199955135584
v 0.01460499968379736 -0.004497000016272068 -0.02588699944317341
v 0.01441199984401465 0.3041149973869324 0.05661199986934662
v 0.01440900005400181 0.3088769912719727 0.04273200035095215
v 0.01421600021421909 0.02837200090289116 -0.01746799983084202
v 0.01420500036329031 0.1893250048160553 0.01844000071287155
v 0.01408500038087368 0.1085160002112389 -0.003146999981254339
v 0.01405400037765503 0.3378899991512299 0.05125999823212624
v 0.01324599981307983 0.06203300133347511 -0.009418999776244164
v 0.01216000039130449 0.2814019918441773 0.04014400020241737
v 0.01192300021648407 0.0561010017991066 -0.01972300000488758
v 0.01180499978363514 0.1540260016918182 0.006767000071704388
v 0.01168600004166365 0.3411769866943359 0.0571650005877018
v 0.01168600004166365 0.02223099954426289 -0.02829599939286709
v 0.01124399993568659 -0.004089000169187784 -0.02091700024902821
v 0.01119699981063604 0.1783259958028793 0.02768800035119057
v 0.01110299956053495 0.2269710004329681 0.04016999900341034
v 0.01110299956053495 0.00698600010946393 -0.01877499930560589
v 0.01107999961823225 0.3188270032405853 0.06464599817991257
v 0.0109850000590086 0.1066059991717339 0.007230999879539013
v 0.01086799986660481 0.2759850025177002 0.05192700028419495
v 0.01085800025612116 0.2482649981975555 0.03402899950742722
v 0.01077499985694885 0.2998070120811462 0.05776000022888184
v 0.01077499985694885 0.02320500090718269 -0.01635600067675114
v 0.01063400041311979 -0.01195500046014786 -0.02660199999809265
v 0.01061099953949451 0.3316830098628998 0.06533800065517426
v 0.01049300003796816 0.04519400000572205 -0.01211499981582165
v 0.009556000120937824 0.3361519873142242 0.0603410005569458
v 0.009556000120937824 -0.01134600024670363 -0.03277000039815903
v 0.008829000405967236 0.1402709931135178 0.003588000079616904
v 0.008735000155866146 0.1889149993658066 0.01607299968600273
v 0.008642000146210194 0.3438209891319275 0.05702799931168556
v 0.0083600003272295 -0.01007799990475178 -0.03945000097155571
v 0.008290000259876251 0.08411899954080582 -0.01462300028651953
v 0.008244000375270844 0.2507990002632141 0.02976400032639504
v 0.008016999810934067 0.3178150057792664 0.05869400128722191
v 0.00800199992954731 -0.01452699955552816 -0.03517699986696243
v 0.00786800030618906 0.01368100009858608 -0.03597399964928627
v 0.007780999876558781 0.3306680023670197 0.0626399964094162
v 0.007751000113785267 0.0342940017580986 -0.03113999962806702
v 0.007588000036776066 0.001601999974809587 -0.04086299985647202
v 0.007563000079244375 0.2894339859485626 0.03612300008535385
v 0.007422999944537878 0.3115420043468475 0.04122199863195419
v 0.007416000124067068 -0.01483699958771467 -0.03401700034737587
v 0.007211999967694283 0.3363490104675293 0.04662999883294106
v 0.007189000025391579 -0.01876699924468994 -0.02973400056362152
v 0.007069999817758799 0.2819460034370422 0.05109300091862679
v 0.007069999817758799 0.02886700071394444 -0.016720000654459
v 0.007031000219285488 0.09603200107812882 -0.006521999835968018
v 0.006951999850571156 -0.009483000263571739 -0.02674400061368942
v 0.006643000058829784 0.2570630013942719 0.0362359993159771
v 0.006643000058829784 0.1921710073947907 0.01884800009429455
v 0.006242000032216311 0.01869500055909157 -0.01768700033426285
v 0.00621799984946847 -0.01667300052940846 -0.03236100077629089
v 0.006080999970436096 0.09552799910306931 -0.004639999940991402
v 0.005886999890208244 0.2485470026731491 0.04465600103139877
v 0.005671999882906675 0.03180500119924545 -0.02509200014173985
v 0.005650000181049109 0.08554200083017349 0.001480999984778464
v 0.005545000080019236 0.2564800083637238 0.0384100005030632
v 0.005545000080019236 0.1915879994630814 0.0210219994187355
v 0.005477000027894974 0.3459320068359375 0.05888399854302406
v 0.005264000035822392 0.3376710116863251 0.06311000138521195
v 0.005177000071853399 0.198853000998497 0.03284800052642822
v 0.005177000071853399 0.1505089998245239 0.01989400014281273
v 0.005177000071853399 0.0006070000235922635 -0.02027199976146221
v 0.00508899986743927 0.2889240086078644 0.04322100058197975
v 0.004311999771744013 0.2848140001296997 0.04947200044989586
v 0.004209000151604414 0.03102800063788891 -0.02219399996101856
v 0.00407300004735589 0.2526609897613525 0.04098799824714661
v 0.00394099997356534 0.3451170027256012 0.06192599982023239
v 0.003595999907702208 0.1232960000634193 0.006587999872863293
v 0.003406000090762973 0.2880319952964783 0.04655300080776215
v 0.003357999958097935 0.1954569965600967 0.02605400048196316
v 0.003341000061482191 -0.003627999918535352 -0.03691599890589714
v 0.003237999975681305 0.05835400149226189 -0.01061700005084276
v 0.003119000000879169 -0.007528000045567751 -0.02820399962365627
v 0.002882000058889389 0.02002000063657761 -0.0206920001655817
v 0.002759000053629279 0.01338999997824431 -0.03293899819254875
v 0.001000000047497451 -0.004869999829679728 -0.03228000178933144
v 0.000615999975707382 0.3232420086860657 0.06180199980735779
v 0.0001979999942705035 0.01203100010752678 -0.02786700055003166
v -0.0005760000203736126 0.01305500045418739 -0.02065500058233738
v -0.0009319999953731895 0.003930000122636557 -0.03916199877858162
v -0.001291000051423907 0.0006270000012591481 -0.02359100058674812
v -0.001515000010840595 0.01121400017291307 -0.03779400140047073
v -0.002486000070348382 0.3333210051059723 0.04754399880766869
v -0.004881999921053648 0.001833999995142222 -0.03133999928832054
v -0.005685000214725733 0.009000999853014946 -0.02953599952161312
v -0.007021000143140554 0.3309150040149689 0.05652600154280663
vn 0.9987894296646118 -0.001875000656582415 0.04915501922369003
vn 0.9924216866493225 -0.04453598335385323 0.1145239621400833
vn 0.9009259939193726 0.1993910074234009 -0.3854550123214722
vn 0.9909084439277649 0.08339403569698334 0.1055740416049957
vn 0.9985669851303101 -0.04882999882102013 0.02190000005066395
vn 0.9160209894180298 0.34688600897789 -0.201434001326561
vn 0.5628930330276489 -0.153314009308815 0.812186062335968
vn 0.6504481434822083 -0.1951380372047424 0.7340561151504517
vn 0.9963536858558655 -0.03145298734307289 0.07930997759103775
vn 0.8512266278266907 0.0334559865295887 -0.5237307548522949
vn 0.9324172139167786 -0.3098960816860199 0.1859100461006165
vn 0.4509958326816559 0.05028098076581955 -0.8911086320877075
vn 0.8589908480644226 -0.4653139114379883 -0.2135829478502274
vn 0.3935100734233856 0.416280061006546 -0.819671094417572
vn 0.7294511198997498 0.5202740430831909 0.4440900683403015
vn 0.9290048480033875 -0.08684598654508591 0.3597329258918762
vn 0.9616985321044922 0.228242889046669 0.1517929285764694
vn 0.9632176756858826 0.04225798323750496 -0.2653789222240448
vn 0.7875450849533081 -0.6028570532798767 0.127812996506691
vn 0.8722220659255981 -0.129827007651329 0.4715650379657745
vn 0.5227288007736206 0.177808940410614 -0.8337497115135193
vn 0.9894675016403198 0.006278002634644508 0.1446190774440765
vn 0.7511152029037476 -0.1724550426006317 0.637248158454895
vn 0.4044488668441773 0.3588389158248901 -0.8412227630615234
vn 0.8511161804199219 -0.4241710901260376 0.3093220591545105
vn 0.102210059762001 0.3014101684093475 0.9480005502700806
vn 0.7484029531478882 0.6154239177703857 0.2472779899835587
vn 0.725222110748291 -0.1592620313167572 0.6698421239852905
vn 0.5560020208358765 -0.004815000109374523 0.8311669826507568
vn 0.7745381593704224 0.3481210470199585 -0.5281121134757996
vn 0.8099239468574524 -0.1752070039510727 0.5597550272941589
vn 0.8140118718147278 0.1636979728937149 -0.5573039054870606
vn 0.4039298892021179 -0.4124418795108795 -0.8165367841720581
vn 0.9902549386024475 0.03421999514102936 -0.1349969804286957
vn 0.7952079176902771 -0.6038209199905396 0.05517899245023727
vn 0.7343211174011231 -0.1827360242605209 0.6537431478500366
vn 0.472588062286377 0.03875000402331352 -0.8804311156272888
vn 0.7447818517684937 -0.1143819838762283 0.6574319005012512
vn 0.3762669861316681 0.2184720039367676 -0.9003850221633911
vn 0.8547279834747315 0.1459130048751831 -0.4981459975242615
vn 0.5830039381980896 0.7567639350891113 -0.2956599593162537
vn 0.7925290465354919 -0.1682820171117783 0.5861560702323914
vn 0.4235579967498779 0.1616130024194717 -0.8913360238075256
vn 0.6298207640647888 0.206032931804657 -0.7489166855812073
vn 0.4797677099704742 0.2422968447208405 -0.8432764410972595
vn 0.6705530881881714 0.7187230587005615 0.1838360130786896
vn 0.6364131569862366 0.361548125743866 -0.6813671588897705
vn -0.1240140125155449 -0.26534703373909 0.9561440944671631
vn 0.2715858817100525 -0.2524779140949249 0.9287066459655762
vn 0.2217761278152466 -0.2371511459350586 0.9458195567131043
vn 0.1715720444917679 -0.2292280793190002 0.9581323266029358
vn -0.5012439489364624 -0.1643549799919128 0.8495539426803589
vn 0.4262410402297974 -0.2608420252799988 0.8661870360374451
vn 0.1131330206990242 -0.2390780448913574 0.9643871784210205
vn 0.3900937736034393 0.2326478511095047 -0.8908994793891907
vn -0.08856597542762756 -0.3070149421691895 0.9475747346878052
vn 0.1685460805892944 -0.1712630689144135 0.9707013964653015
vn 0.782025933265686 -0.571575939655304 0.2484679818153381
vn -0.6013877987861633 0.06795898079872131 0.7960617542266846
vn 0.442143976688385 -0.244628980755806 0.8629399538040161
vn 0.3083771765232086 0.5628193616867065 0.7669014930725098
vn 0.7463712096214294 -0.6601991653442383 -0.08406602591276169
vn -0.5779973864555359 0.2358321249485016 -0.7812184691429138
vn 0.2608708739280701 0.2165009081363678 -0.9407835602760315
vn 0.4428221881389618 0.868483304977417 -0.2228120863437653
vn -0.2720410525798798 -0.4559640884399414 -0.8474021553993225
vn -0.4123081266880035 0.2915940880775452 -0.8631193041801453
vn -0.09927298873662949 0.1752459704875946 -0.9795068502426148
vn -0.4346989095211029 -0.2193599492311478 0.873451828956604
vn -0.6042001247406006 -0.5424840450286865 -0.5836551189422607
vn 0.1909389495849609 0.3457009494304657 -0.9187127947807312
vn -0.05365099012851715 -0.1222289726138115 0.9910507798194885
vn 0.2379580438137054 0.3113470673561096 -0.9200211763381958
vn -0.252907007932663 0.08777199685573578 -0.9635009765625
vn -0.4965490996837616 0.08928801119327545 -0.8634040951728821
vn -0.4695448577404022 0.1504379510879517 -0.8699977397918701
vn -0.8128732442855835 -0.5369531512260437 -0.2256510704755783
vn -0.1653290539979935 0.4857971668243408 -0.8582932949066162
vn 0.03138900175690651 -0.7742900252342224 0.6320520043373108
vn -0.7533120512962341 -0.1292820125818253 0.6448310613632202
vn -0.06339097768068314 -0.2665519118309021 0.9617336988449097
vn -0.8384959697723389 0.143994003534317 -0.5255380272865295
vn -0.4841320514678955 -0.3913020193576813 0.7826230525970459
vn -0.9359761476516724 0.0600690059363842 -0.3469010591506958
vn -0.8534653186798096 0.1280270516872406 -0.5051791667938232
vn -0.322272002696991 -0.1311729997396469 0.9375150203704834
vn -0.8064590096473694 -0.5757759809494019 0.1345580071210861
vn -0.8516138792037964 0.1434909850358963 -0.504146933555603
vn -0.7694240212440491 -0.1298229992389679 0.62540602684021
vn -0.972009003162384 0.1043889969587326 -0.2104790061712265
vn -0.2617149949073792 -0.274507999420166 0.9252840876579285
vn -0.9399465322494507 0.07530804723501205 -0.3329101800918579
vn -0.8904576301574707 0.1161379516124725 -0.4399968087673187
vn -0.145689070224762 0.9060354232788086 -0.3973341882228851
vn -0.2701109349727631 0.07392898201942444 0.9599867463111877
vn -0.6830202341079712 -0.176516056060791 0.7087492346763611
vn -0.5839768052101135 -0.2129439413547516 0.7833427786827087
vn -0.2245970517396927 -0.3095100522041321 0.9239912033081055
vn -0.852220356464386 -0.03207001462578774 -0.5221992135047913
vn -0.7167086601257324 -0.211937889456749 0.6643877029418945
vn -0.8384417295455933 0.1976369321346283 -0.5078928470611572
vn -0.9997951984405518 0.01871900446712971 -0.007692001294344664
vn -0.6667211651802063 0.6653871536254883 0.3357720971107483
vn -0.9962654113769531 0.02688801102340221 -0.08205004036426544
vn -0.9741568565368652 -0.1860219836235046 0.1281179785728455
vn -0.9948822855949402 0.03033700957894325 -0.09637902677059174
vn -0.6487430930137634 -0.4191690981388092 -0.6351611018180847
vn -0.9848961234092712 -0.03083700314164162 0.1703780293464661
vn -0.7137939929962158 -0.5651440024375916 0.4136549830436707
vn -0.7956719994544983 -0.0637660026550293 0.6023619771003723
vn -0.9614174365997315 0.22623510658741 -0.1565060764551163
vn -0.81607586145401 -0.5647949576377869 -0.1225839853286743
vn -0.4726501107215881 -0.2526090741157532 0.8442692160606384
vn -0.8858991861343384 0.4017840921878815 -0.2318450659513474
vn -0.7576522827148438 0.003648001467809081 0.6526482105255127
vn -0.5101561546325684 -0.02862500958144665 -0.8596053123474121
vn -0.6527848243713379 -0.3354949057102203 0.6792018413543701
vn -0.5325042009353638 0.5167801976203919 -0.6703562140464783
vn -0.6833239197731018 0.2207179963588715 -0.6959539651870728
vn -0.9330037236213684 -0.3588068783283234 0.02759899012744427
vn -0.9228930473327637 0.3630640208721161 -0.1282690167427063
vn -0.9899485111236572 -0.04680697619915009 0.1334579437971115
f 62//62 58//58 79//79
f 62//62 35//35 58//58
f 62//62 19//19 35//35
f 62//62 13//13 19//19
f 62//62 33//33 13//13
f 62//62 66//66 33//33
f 62//62 70//70 66//66
f 62//62 77//77 70//70
f 62//62 87//87 77//77
f 62//62 79//79 87//87
f 79//79 48//48 83//83
f 79//79 58//58 48//48
f 87//87 79//79 83//83
f 58//58 8//8 48//48
f 58//58 35//35 8//8
f 35//35 2//2 8//8
f 35//35 19//19 2//2
f 19//19 3//3 2//2
f 19//19 13//13 3//3
f 13//13 24//24 3//3
f 13//13 33//33 24//24
f 33//33 74//74 24//24
f 33//33 66//66 74//74
f 66//66 107//107 74//74
f 66//66 70//70 107//107
f 70//70 112//112 107//107
f 70//70 77//77 112//112
f 77//77 109//109 112//112
f 77//77 87//87 109//109
f 87//87 83//83 109//109
f 83//83 51//51 98//98
f 83//83 48//48 51//51
f 109//109 83//83 98//98
f 48//48 29//29 51//51
f 48//48 8//8 29//29
f 8//8 17//17 29//29
f 8//8 2//2 17//17
f 2//2 30//30 17//17
f 2//2 3//3 30//30
f 3//3 47//47 30//30
f 3//3 24//24 47//47
f 24//24 71//71 47//47
f 24//24 74//74 71//71
f 74//74 116//116 71//71
f 74//74 107//107 116//116
f 107//107 120//120 116//116
f 107//107 112//112 120//120
f 112//112 117//117 120//120
f 112//112 109//109 117//117
f 109//109 98//98 117//117
f 98//98 57//57 86//86
f 98//98 51//51 57//57
f 117//117 98//98 86//86
f 51//51 38//38 57//57
f 51//51 29//29 38//38
f 29//29 22//22 38//38
f 29//29 17//17 22//22
f 17//17 32//32 22//22
f 17//17 30//30 32//32
f 30//30 44//44 32//32
f 30//30 47//47 44//44
f 47//47 73//73 44//44
f 47//47 71//71 73//73
f 71//71 118//118 73//73
f 71//71 116//116 118//118
f 116//116 121//121 118//118
f 116//116 120//120 121//121
f 120//120 115//115 121//121
f 120//120 117//117 115//115
f 117//117 86//86 115//115
f 86//86 60//60 81//81
f 86//86 57//57 60//60
f 115//115 86//86 81//81
f 57//57 42//42 60//60
f 57//57 38//38 42//42
f 38//38 34//34 42//42
f 38//38 22//22 34//34
f 22//22 40//40 34//34
f 22//22 32//32 40//40
f 32//32 45//45 40//40
f 32//32 44//44 45//45
f 44//44 67//67 45//45
f 44//44 73//73 67//67
f 73//73 111//111 67//67
f 73//73 118//118 111//111
f 118//118 114//114 111//111
f 118//118 121//121 114//114
f 121//121 110//110 114//114
f 121//121 115//115 110//110
f 115//115 81//81 110//110
f 81//81 53//53 91//91
f 81//81 60//60 53//53
f 110//110 81//81 91//91
f 60//60 31//31 53//53
f 60//60 42//42 31//31
f 42//42 18//18 31//31
f 42//42 34//34 18//18
f 34//34 39//39 18//18
f 34//34 40//40 39//39
f 40//40 55//55 39//39
f 40//40 45//45 55//55
f 45//45 63//63 55//55
f 45//45 67//67 63//63
f 67//67 90//90 63//63
f 67//67 111//111 90//90
f 111//111 101//101 90//90
f 111//111 114//114 101//101
f 114//114 108//108 101//101
f 114//114 110//110 108//108
f 110//110 91//91 108//108
f 91//91 49//49 97//97
f 91//91 53//53 49//49
f 108//108 91//91 97//97
f 53//53 23//23 49//49
f 53//53 31//31 23//23
f 31//31 9//9 23//23
f 31//31 18//18 9//9
f 18//18 21//21 9//9
f 18//18 39//39 21//21
f 39//39 43//43 21//21
f 39//39 55//55 43//43
f 55//55 64//64 43//43
f 55//55 63//63 64//64
f 63//63 82//82 64//64
f 63//63 90//90 82//82
f 90//90 88//88 82//82
f 90//90 101//101 88//88
f 101//101 104//104 88//88
f 101//101 108//108 104//104
f 108//108 97//97 104//104
f 97//97 50//50 96//96
f 97//97 49//49 50//50
f 104//104 97//97 96//96
f 49//49 28//28 50//50
f 49//49 23//23 28//28
f 23//23 16//16 28//28
f 23//23 9//9 16//16
f 9//9 10//10 16//16
f 9//9 21//21 10//10
f 21//21 37//37 10//10
f 21//21 43//43 37//37
f 43//43 68//68 37//37
f 43//43 64//64 68//68
f 64//64 85//85 68//68
f 64//64 82//82 85//85
f 82//82 93//93 85//85
f 82//82 88//88 93//93
f 88//88 106//106 93//93
f 88//88 104//104 106//106
f 104//104 96//96 106//106
f 96//96 54//54 89//89
f 96//96 50//50 54//54
f 106//106 96//96 89//89
f 50//50 36//36 54//54
f 50//50 28//28 36//36
f 28//28 20//20 36//36
f 28//28 16//16 20//20
f 16//16 5//5 20//20
f 16//16 10//10 5//5
f 10//10 12//12 5//5
f 10//10 37//37 12//12
f 37//37 75//75 12//12
f 37//37 68//68 75//75
f 68//68 84//84 75//75
f 68//68 85//85 84//84
f 85//85 92//92 84//84
f 85//85 93//93 92//92
f 93//93 102//102 92//92
f 93//93 106//106 102//102
f 106//106 89//89 102//102
f 89//89 56//56 80//80
f 89//89 54//54 56//56
f 102//102 89//89 80//80
f 54//54 25//25 56//56
f 54//54 36//36 25//25
f 36//36 11//11 25//25
f 36//36 20//20 11//11
f 20//20 4//4 11//11
f 20//20 5//5 4//4
f 5//5 14//14 4//4
f 5//5 12//12 14//14
f 12//12 76//76 14//14
f 12//12 75//75 76//76
f 75//75 99//99 76//76
f 75//75 84//84 99//99
f 84//84 105//105 99//99
f 84//84 92//92 105//105
f 92//92 100//100 105//105
f 92//92 102//102 100//100
f 102//102 80//80 100//100
f 80//80 52//52 69//69
f 80//80 56//56 52//52
f 100//100 80//80 69//69
f 56//56 7//7 52//52
f 56//56 25//25 7//7
f 25//25 1//1 7//7
f 25//25 11//11 1//1
f 11//11 6//6 1//1
f 11//11 4//4 6//6
f 4//4 41//41 6//6
f 4//4 14//14 41//41
f 14//14 78//78 41//41
f 14//14 76//76 78//78
f 76//76 119//119 78//78
f 76//76 99//99 119//119
f 99//99 122//122 119//119
f 99//99 105//105 122//122
f 105//105 113//113 122//122
f 105//105 100//100 113//113
f 100//100 69//69 113//113
f 69//69 59//59 72//72
f 69//69 52//52 59//59
f 113//113 69//69 72//72
f 52//52 26//26 59//59
f 52//52 7//7 26//26
f 7//7 15//15 26//26
f 7//7 1//1 15//15
f 1//1 27//27 15//15
f 1//1 6//6 27//27
f 6//6 46//46 27//27
f 6//6 41//41 46//46
f 41//41 65//65 46//46
f 41//41 78//78 65//65
f 78//78 94//94 65//65
f 78//78 119//119 94//94
f 119//119 103//103 94//94
f 119//119 122//122 103//103
f 122//122 95//95 103//103
f 122//122 113//113 95//95
f 113//113 72//72 95//95
f 72//72 59//59 61//61
f 95//95 72//72 61//61
f 59//59 26//26 61//61
f 26//26 15//15 61//61
f 15//15 27//27 61//61
f 27//27 46//46 61//61
f 46//46 65//65 61//61
f 65//65 94//94 61//61
f 94//94 103//103 61//61
f 103//103 95//95 61//61
