####
#
# OBJ File Generated by Meshlab
#
####
# Object Horsman_sacrum.obj
#
# Vertices: 192
# Faces: 370
#
####
mtllib ./Horsman_sacrum.obj.mtl

vn 0.221835 0.975084 0.000164
v -0.077492 0.121284 0.000000
vn 0.955616 0.194494 0.221293
v -0.073026 0.119729 -0.000038
vn 0.994421 0.105429 0.003387
v -0.073859 0.110922 -0.000055
vn 0.779152 0.414471 -0.470251
v -0.069666 0.108548 -0.000094
vn 0.881686 0.470181 0.039482
v -0.065592 0.111228 -0.000118
vn 0.741198 0.658135 -0.132224
v -0.060545 0.105537 -0.000171
vn 0.665853 0.744518 -0.048306
v -0.046263 0.093117 -0.000314
vn 0.971714 0.233555 0.034992
v -0.041142 0.090808 -0.000359
vn 0.506318 -0.857012 0.095772
v -0.042375 0.087127 -0.000359
vn 0.409458 -0.912326 -0.002202
v -0.056103 0.083599 -0.000262
vn 0.560050 -0.824533 0.080554
v -0.071444 0.077518 -0.000160
vn 0.589014 -0.803865 0.082844
v -0.080515 0.071649 -0.000105
vn 0.680537 -0.728474 0.078711
v -0.092159 0.068933 -0.000022
vn 0.880294 -0.457016 -0.127350
v -0.103431 0.058293 0.000038
vn 0.257022 0.896000 0.362109
v -0.112955 0.050172 0.000090
vn -0.614461 0.009678 -0.788888
v -0.121221 0.033170 0.000110
vn 0.314758 -0.544409 0.777526
v -0.119335 0.027971 0.000082
vn 0.805125 -0.022832 -0.592666
v -0.120863 0.018896 0.000070
vn 0.825132 0.179868 -0.535542
v -0.118642 0.011989 0.000035
vn 0.830774 -0.066921 -0.552572
v -0.116476 0.006721 0.000004
vn 0.246250 -0.969200 -0.003584
v -0.118613 -0.001464 0.000000
vn 0.665090 0.714279 -0.217854
v -0.058839 0.116196 0.014170
vn 0.989836 0.057324 -0.130147
v -0.058953 0.109796 0.015582
vn 0.981359 -0.114181 0.154589
v -0.058812 0.100675 0.017809
vn 0.943657 -0.110670 0.311870
v -0.059583 0.095251 0.018536
vn 0.861411 0.164207 0.480631
v -0.060696 0.089544 0.019093
vn 0.569721 0.461360 0.680122
v -0.058412 0.082769 0.022260
vn 0.662438 -0.193912 0.723584
v -0.058105 0.077448 0.023715
vn 0.500676 -0.865415 0.019518
v -0.061102 0.072727 0.022731
vn 0.525515 -0.835431 -0.160902
v -0.069912 0.069379 0.017380
vn 0.742794 -0.659883 -0.113187
v -0.076865 0.062022 0.014255
vn 0.666391 -0.635455 -0.390025
v -0.084374 0.055026 0.010659
vn 0.663846 -0.453225 -0.594892
v -0.091791 0.049411 0.006807
vn 0.600974 -0.334638 -0.725843
v -0.099642 0.042499 0.002954
vn 0.430206 -0.145748 -0.890887
v -0.106852 0.037867 -0.000985
vn 0.452634 -0.178429 -0.873662
v -0.111690 0.025995 -0.001584
vn 0.409118 -0.100396 -0.906942
v -0.108549 0.022701 0.001370
vn 0.652195 -0.234264 -0.720945
v -0.109970 0.016996 0.001712
vn 0.667652 -0.174047 -0.723843
v -0.112009 0.013293 0.001156
vn 0.884580 -0.370611 -0.283135
v -0.113109 0.008173 0.001584
vn 0.389505 0.916560 0.090575
v -0.064467 0.117598 0.041630
vn 0.705900 0.105960 0.700341
v -0.064816 0.113842 0.044285
vn 0.513837 -0.062248 0.855627
v -0.069186 0.098086 0.046938
vn 0.441818 -0.307819 0.842641
v -0.073976 0.084354 0.046380
vn 0.123306 -0.714504 0.688679
v -0.077765 0.077761 0.041770
vn 0.099135 -0.452085 0.886449
v -0.080981 0.075016 0.035065
vn 0.225747 -0.309487 0.923718
v -0.084126 0.066342 0.034366
vn 0.256567 -0.797802 0.545606
v -0.087288 0.060186 0.031153
vn 0.345027 -0.638815 0.687656
v -0.090424 0.056829 0.025286
vn 0.512868 -0.380122 0.769723
v -0.092320 0.049026 0.027381
vn 0.508942 -0.660048 0.552554
v -0.096924 0.040568 0.022212
vn 0.660517 -0.670389 0.338077
v -0.100641 0.032183 0.019558
vn 0.607211 -0.791468 -0.069807
v -0.103689 0.028658 0.014110
vn 0.793483 -0.578536 -0.188893
v -0.106498 0.026992 0.007543
vn 0.743157 0.464952 0.481182
v -0.108556 0.020413 0.007962
vn 0.859117 0.504990 0.083083
v -0.106661 0.019646 0.014250
vn 0.305979 -0.794223 0.524964
v -0.107571 0.017212 0.013970
vn 0.430801 -0.851402 0.299208
v -0.110110 0.015775 0.007962
vn 0.325324 -0.516125 0.792325
v -0.112691 0.010359 0.005727
vn 0.168784 0.978375 0.119561
v -0.090165 0.123995 0.041845
vn -0.390033 0.403817 0.827530
v -0.092154 0.120648 0.044514
vn -0.558303 0.225002 0.798543
v -0.098160 0.105299 0.047182
vn -0.621447 0.059919 0.781161
v -0.102606 0.091482 0.046620
vn -0.652838 -0.545629 0.525444
v -0.103547 0.084179 0.041986
vn -0.515769 -0.209571 0.830700
v -0.102627 0.080405 0.035246
vn -0.404590 -0.034403 0.913851
v -0.105339 0.071625 0.034543
vn -0.459955 -0.519896 0.719826
v -0.106520 0.064973 0.031314
vn -0.334038 -0.195989 0.921958
v -0.106032 0.060713 0.025417
vn -0.263587 -0.067656 0.962260
v -0.109222 0.053233 0.027522
vn -0.308914 -0.303680 0.901305
v -0.110635 0.043981 0.022327
vn -0.398969 -0.454783 0.796239
v -0.112715 0.035190 0.019659
vn -0.476266 -0.729379 0.491097
v -0.112399 0.030825 0.014182
vn -0.010477 -0.400499 0.916237
v -0.111153 0.028152 0.007583
vn 0.401002 0.457082 0.793898
v -0.113473 0.021636 0.008004
vn 0.203125 0.647184 0.734775
v -0.115456 0.021836 0.014323
vn -0.167561 -0.660785 0.731633
v -0.116195 0.019359 0.014042
vn -0.022661 -0.736698 0.675842
v -0.115026 0.017000 0.008004
vn -0.020583 -0.361497 0.932146
v -0.116227 0.011240 0.005757
vn -0.199665 0.978628 -0.049203
v -0.097050 0.124971 0.014964
vn -0.900071 0.432577 -0.052438
v -0.101146 0.120005 0.016714
vn -0.920941 0.386754 -0.047846
v -0.104657 0.108984 0.016582
vn -0.875748 0.479921 0.052350
v -0.112754 0.099328 0.020083
vn -0.999818 0.018329 0.005302
v -0.112718 0.091635 0.018202
vn -0.782257 0.536672 0.316318
v -0.115046 0.084679 0.018202
vn -0.697396 0.493354 0.519847
v -0.120352 0.078464 0.020521
vn -0.868084 -0.213038 0.448381
v -0.121407 0.072595 0.019864
vn -0.715912 0.147787 0.682370
v -0.119128 0.067963 0.017108
vn -0.671249 0.236386 0.702529
v -0.124584 0.060383 0.019207
vn -0.729423 -0.131223 0.671359
v -0.124670 0.052868 0.017458
vn -0.792714 -0.335258 0.509124
v -0.124090 0.046074 0.015401
vn -0.648662 -0.157086 0.744689
v -0.123951 0.040499 0.013957
vn -0.341708 0.008986 0.939763
v -0.124825 0.034438 0.013126
vn -0.453726 -0.038325 0.890317
v -0.123959 0.028312 0.011026
vn -0.586899 0.093846 0.804203
v -0.126534 0.024075 0.011857
vn -0.500118 -0.468390 0.728349
v -0.127570 0.017536 0.011026
vn -0.238106 -0.679075 0.694380
v -0.121923 0.014431 0.006213
vn -0.336163 -0.321404 0.885265
v -0.122129 0.007464 0.004682
vn -0.585453 0.796228 -0.152532
v -0.084226 0.121039 0.000051
vn -0.938377 0.321804 -0.126056
v -0.089668 0.114267 0.000075
vn -0.767813 0.635067 0.084577
v -0.088747 0.107092 0.000050
vn -0.748193 0.655482 0.102720
v -0.103071 0.102237 0.000148
vn -0.880855 0.466579 0.079994
v -0.104098 0.094660 0.000137
vn -0.607111 0.789044 0.093939
v -0.114359 0.085689 0.000192
vn -0.657795 0.751457 0.051171
v -0.124189 0.082522 0.000261
vn -0.999892 0.009615 -0.011151
v -0.126951 0.077891 0.000270
vn -0.921878 0.369063 0.118038
v -0.125253 0.073477 0.000246
vn -0.868991 0.494824 0.001707
v -0.132827 0.065759 0.000284
vn -0.990380 -0.136625 -0.021936
v -0.134100 0.060610 0.000281
vn -0.997632 -0.068718 0.002810
v -0.131426 0.055953 0.000248
vn -0.907040 0.405837 0.112133
v -0.134367 0.049889 0.000254
vn -0.999941 0.010822 -0.001365
v -0.141426 0.041449 0.000287
vn -0.952339 -0.287749 -0.101243
v -0.135770 0.035314 0.000227
vn -0.996314 0.083820 -0.018252
v -0.135068 0.025683 0.000198
vn -0.865064 -0.499493 -0.046597
v -0.136076 0.015000 0.000178
vn -0.653098 -0.756878 -0.024472
v -0.127139 0.011444 0.000100
vn -0.863863 -0.467242 -0.188217
v -0.126955 0.003421 0.000077
vn -0.208579 0.959452 0.189594
v -0.097273 0.125026 -0.014642
vn -0.905004 0.382034 0.187131
v -0.101395 0.120067 -0.016353
vn -0.832518 0.552574 0.039692
v -0.104902 0.109046 -0.016225
vn -0.928779 0.361914 -0.079923
v -0.113052 0.099402 -0.019649
vn -0.965342 0.242941 -0.095362
v -0.112986 0.091704 -0.017809
vn -0.802511 0.502727 -0.321312
v -0.115317 0.084747 -0.017809
vn -0.753701 0.400328 -0.521222
v -0.120656 0.078540 -0.020078
vn -0.844850 -0.249464 -0.473283
v -0.121701 0.072668 -0.019436
vn -0.782754 0.167052 -0.599491
v -0.119381 0.068027 -0.016738
vn -0.651585 0.281541 -0.704395
v -0.124870 0.060455 -0.018794
vn -0.737967 -0.266939 -0.619797
v -0.124929 0.052932 -0.017081
vn -0.724007 -0.098874 -0.682670
v -0.124317 0.046132 -0.015069
vn -0.624494 -0.014986 -0.780886
v -0.124158 0.040550 -0.013656
vn -0.488390 -0.413614 -0.768374
v -0.125021 0.034486 -0.012842
vn -0.377312 -0.059842 -0.924151
v -0.124122 0.028352 -0.010788
vn -0.558465 0.298530 -0.773948
v -0.126710 0.024119 -0.011602
vn -0.360477 -0.587478 -0.724518
v -0.127734 0.017576 -0.010788
vn -0.266382 -0.633283 -0.726632
v -0.122015 0.014455 -0.006079
vn -0.193765 -0.379426 -0.904705
v -0.122197 0.007481 -0.004580
vn 0.085324 0.992840 -0.083598
v -0.090792 0.124152 -0.041630
vn -0.604454 0.439518 -0.664423
v -0.092820 0.120814 -0.044285
vn -0.500940 0.330286 -0.799982
v -0.098868 0.105476 -0.046938
vn -0.522020 -0.053906 -0.851228
v -0.103306 0.091656 -0.046380
vn -0.564839 -0.474349 -0.675240
v -0.104178 0.084338 -0.041770
vn -0.492918 -0.343724 -0.799303
v -0.103154 0.080537 -0.035065
vn -0.359786 -0.100088 -0.927651
v -0.105858 0.071753 -0.034366
vn -0.410483 -0.545054 -0.731040
v -0.106989 0.065089 -0.031153
vn -0.342936 -0.183399 -0.921281
v -0.106413 0.060808 -0.025286
vn -0.265666 -0.057831 -0.962329
v -0.109635 0.053336 -0.027381
vn -0.304085 -0.355571 -0.883800
v -0.110970 0.044064 -0.022211
vn -0.328952 -0.387088 -0.861367
v -0.113009 0.035263 -0.019558
vn -0.308319 -0.739819 -0.598003
v -0.112612 0.030879 -0.014110
vn -0.025750 -0.605084 -0.795745
v -0.111266 0.028180 -0.007543
vn 0.244585 0.435027 -0.866562
v -0.113592 0.021667 -0.007962
vn 0.043839 0.756684 -0.652310
v -0.115672 0.021889 -0.014250
vn -0.052831 -0.740253 -0.670249
v -0.116405 0.019410 -0.013970
vn -0.089985 -0.712058 -0.696331
v -0.115145 0.017029 -0.007962
vn -0.007811 -0.388884 -0.921254
v -0.116312 0.011261 -0.005727
vn 0.296093 0.946812 -0.126000
v -0.065093 0.117754 -0.041845
vn 0.543470 0.085692 -0.835043
v -0.065483 0.114007 -0.044514
vn 0.547884 -0.087030 -0.832015
v -0.069892 0.098261 -0.047182
vn 0.488538 -0.412587 -0.768832
v -0.074675 0.084528 -0.046620
vn 0.289008 -0.743297 -0.603311
v -0.078393 0.077917 -0.041986
vn 0.095228 -0.329084 -0.939487
v -0.081509 0.075149 -0.035246
vn 0.214418 -0.277446 -0.936509
v -0.084645 0.066472 -0.034542
vn 0.217635 -0.730844 -0.646917
v -0.087759 0.060301 -0.031314
vn 0.346012 -0.555366 -0.756204
v -0.090803 0.056924 -0.025417
vn 0.377894 -0.449869 -0.809206
v -0.092733 0.049128 -0.027522
vn 0.511084 -0.611072 -0.604470
v -0.097259 0.040651 -0.022327
vn 0.626802 -0.731282 -0.268970
v -0.100936 0.032256 -0.019659
vn 0.665394 -0.737958 0.112553
v -0.103900 0.028709 -0.014182
vn 0.811499 -0.554754 0.183621
v -0.106611 0.027021 -0.007583
vn 0.962425 0.131378 0.237652
v -0.108677 0.020442 -0.008004
vn 0.610962 0.541343 -0.577645
v -0.106876 0.019699 -0.014323
vn 0.590498 -0.787397 -0.176968
v -0.107782 0.017264 -0.014042
vn 0.486497 -0.752506 -0.443909
v -0.110229 0.015806 -0.008004
vn 0.632161 -0.524014 -0.570772
v -0.112776 0.010382 -0.005757
vn 0.658496 0.751807 0.034187
v -0.059054 0.116250 -0.014482
vn 0.990954 -0.111401 0.074834
v -0.059190 0.109857 -0.015926
vn 0.980062 -0.083360 -0.180359
v -0.059083 0.100741 -0.018202
vn 0.906737 -0.338107 -0.252015
v -0.059864 0.095320 -0.018945
vn 0.908676 0.228390 -0.349495
v -0.060985 0.089617 -0.019514
vn 0.599454 0.370385 -0.709556
v -0.058751 0.082854 -0.022751
vn 0.632200 -0.087859 -0.769808
v -0.058466 0.077538 -0.024239
vn 0.588225 -0.798647 -0.127097
v -0.061446 0.072812 -0.023234
vn 0.547244 -0.834529 0.063913
v -0.070175 0.069444 -0.017765
vn 0.676001 -0.721809 0.148372
v -0.077080 0.062077 -0.014570
vn 0.713120 -0.622203 0.322991
v -0.084535 0.055066 -0.010894
vn 0.623828 -0.502531 0.598584
v -0.091895 0.049437 -0.006957
vn 0.594984 -0.335218 0.730495
v -0.099687 0.042511 -0.003019
vn 0.468709 -0.164456 0.867909
v -0.106837 0.037864 0.001006
vn 0.143441 -0.132181 0.980792
v -0.111666 0.025988 0.001619
vn 0.495475 -0.365716 0.787880
v -0.108569 0.022706 -0.001400
vn 0.511789 -0.196219 0.836403
v -0.109996 0.017003 -0.001750
vn 0.602863 -0.181237 0.776987
v -0.112027 0.013298 -0.001182
vn 0.758189 -0.270834 0.593126
v -0.113133 0.008180 -0.001619
# 192 vertices, 0 vertices normals


usemtl material_0
f 22//22 2//2 1//1
f 22//22 23//23 3//3
f 22//22 3//3 2//2
f 23//23 24//24 4//4
f 23//23 4//4 3//3
f 25//25 26//26 6//6
f 25//25 6//6 5//5
f 26//26 27//27 7//7
f 26//26 7//7 6//6
f 27//27 28//28 8//8
f 27//27 8//8 7//7
f 28//28 29//29 9//9
f 28//28 9//9 8//8
f 29//29 30//30 10//10
f 29//29 10//10 9//9
f 30//30 31//31 11//11
f 30//30 11//11 10//10
f 31//31 32//32 12//12
f 31//31 12//12 11//11
f 32//32 33//33 13//13
f 32//32 13//13 12//12
f 33//33 34//34 14//14
f 33//33 14//14 13//13
f 34//34 35//35 15//15
f 34//34 15//15 14//14
f 35//35 36//36 16//16
f 35//35 16//16 15//15
f 36//36 37//37 17//17
f 36//36 17//17 16//16
f 37//37 38//38 18//18
f 37//37 18//18 17//17
f 38//38 39//39 19//19
f 38//38 19//19 18//18
f 39//39 40//40 20//20
f 39//39 20//20 19//19
f 40//40 21//21 20//20
f 41//41 22//22 1//1
f 41//41 42//42 23//23
f 41//41 23//23 22//22
f 42//42 43//43 24//24
f 42//42 24//24 23//23
f 43//43 44//44 25//25
f 43//43 25//25 24//24
f 44//44 45//45 26//26
f 44//44 26//26 25//25
f 46//46 47//47 28//28
f 46//46 28//28 27//27
f 47//47 48//48 29//29
f 47//47 29//29 28//28
f 48//48 49//49 30//30
f 48//48 30//30 29//29
f 49//49 50//50 31//31
f 49//49 31//31 30//30
f 50//50 51//51 32//32
f 50//50 32//32 31//31
f 51//51 52//52 33//33
f 51//51 33//33 32//32
f 52//52 53//53 34//34
f 52//52 34//34 33//33
f 53//53 54//54 35//35
f 53//53 35//35 34//34
f 54//54 55//55 36//36
f 54//54 36//36 35//35
f 55//55 56//56 37//37
f 55//55 37//37 36//36
f 56//56 57//57 38//38
f 56//56 38//38 37//37
f 58//58 39//39 38//38
f 58//58 38//38 57//57
f 58//58 59//59 40//40
f 58//58 40//40 39//39
f 59//59 21//21 40//40
f 60//60 41//41 1//1
f 60//60 61//61 42//42
f 60//60 42//42 41//41
f 61//61 62//62 43//43
f 61//61 43//43 42//42
f 62//62 63//63 44//44
f 62//62 44//44 43//43
f 63//63 64//64 45//45
f 63//63 45//45 44//44
f 64//64 65//65 46//46
f 64//64 46//46 45//45
f 65//65 66//66 47//47
f 65//65 47//47 46//46
f 66//66 67//67 48//48
f 66//66 48//48 47//47
f 67//67 68//68 49//49
f 67//67 49//49 48//48
f 68//68 69//69 50//50
f 68//68 50//50 49//49
f 69//69 70//70 51//51
f 69//69 51//51 50//50
f 70//70 71//71 52//52
f 70//70 52//52 51//51
f 71//71 72//72 53//53
f 71//71 53//53 52//52
f 72//72 73//73 54//54
f 72//72 54//54 53//53
f 73//73 74//74 55//55
f 73//73 55//55 54//54
f 74//74 75//75 56//56
f 74//74 56//56 55//55
f 75//75 76//76 57//57
f 75//75 57//57 56//56
f 76//76 77//77 58//58
f 76//76 58//58 57//57
f 77//77 78//78 59//59
f 77//77 59//59 58//58
f 78//78 21//21 59//59
f 79//79 60//60 1//1
f 79//79 80//80 61//61
f 79//79 61//61 60//60
f 80//80 81//81 62//62
f 80//80 62//62 61//61
f 81//81 82//82 63//63
f 81//81 63//63 62//62
f 82//82 83//83 64//64
f 82//82 64//64 63//63
f 83//83 84//84 65//65
f 83//83 65//65 64//64
f 84//84 85//85 66//66
f 84//84 66//66 65//65
f 85//85 86//86 67//67
f 85//85 67//67 66//66
f 86//86 87//87 68//68
f 86//86 68//68 67//67
f 87//87 88//88 69//69
f 87//87 69//69 68//68
f 88//88 89//89 70//70
f 88//88 70//70 69//69
f 89//89 90//90 71//71
f 89//89 71//71 70//70
f 90//90 91//91 72//72
f 90//90 72//72 71//71
f 91//91 92//92 73//73
f 91//91 73//73 72//72
f 92//92 93//93 74//74
f 92//92 74//74 73//73
f 93//93 94//94 75//75
f 93//93 75//75 74//74
f 94//94 95//95 76//76
f 94//94 76//76 75//75
f 95//95 96//96 77//77
f 95//95 77//77 76//76
f 96//96 97//97 78//78
f 96//96 78//78 77//77
f 97//97 21//21 78//78
f 98//98 79//79 1//1
f 98//98 99//99 80//80
f 98//98 80//80 79//79
f 99//99 100//100 81//81
f 99//99 81//81 80//80
f 100//100 101//101 82//82
f 100//100 82//82 81//81
f 101//101 102//102 83//83
f 101//101 83//83 82//82
f 102//102 103//103 84//84
f 102//102 84//84 83//83
f 103//103 104//104 85//85
f 103//103 85//85 84//84
f 104//104 105//105 86//86
f 104//104 86//86 85//85
f 105//105 106//106 87//87
f 105//105 87//87 86//86
f 106//106 107//107 88//88
f 106//106 88//88 87//87
f 107//107 108//108 89//89
f 107//107 89//89 88//88
f 108//108 109//109 90//90
f 108//108 90//90 89//89
f 109//109 110//110 91//91
f 109//109 91//91 90//90
f 110//110 111//111 92//92
f 110//110 92//92 91//91
f 111//111 112//112 93//93
f 111//111 93//93 92//92
f 112//112 113//113 94//94
f 112//112 94//94 93//93
f 113//113 114//114 95//95
f 113//113 95//95 94//94
f 114//114 115//115 96//96
f 114//114 96//96 95//95
f 115//115 116//116 97//97
f 115//115 97//97 96//96
f 116//116 21//21 97//97
f 117//117 98//98 1//1
f 117//117 118//118 99//99
f 117//117 99//99 98//98
f 118//118 119//119 100//100
f 118//118 100//100 99//99
f 119//119 120//120 101//101
f 119//119 101//101 100//100
f 120//120 121//121 102//102
f 120//120 102//102 101//101
f 121//121 122//122 103//103
f 121//121 103//103 102//102
f 122//122 123//123 104//104
f 122//122 104//104 103//103
f 123//123 124//124 105//105
f 123//123 105//105 104//104
f 124//124 125//125 106//106
f 124//124 106//106 105//105
f 125//125 126//126 107//107
f 125//125 107//107 106//106
f 126//126 127//127 108//108
f 126//126 108//108 107//107
f 127//127 128//128 109//109
f 127//127 109//109 108//108
f 128//128 129//129 110//110
f 128//128 110//110 109//109
f 129//129 130//130 111//111
f 129//129 111//111 110//110
f 130//130 131//131 112//112
f 130//130 112//112 111//111
f 131//131 132//132 113//113
f 131//131 113//113 112//112
f 132//132 133//133 114//114
f 132//132 114//114 113//113
f 133//133 134//134 115//115
f 133//133 115//115 114//114
f 134//134 135//135 116//116
f 134//134 116//116 115//115
f 135//135 21//21 116//116
f 136//136 117//117 1//1
f 136//136 137//137 118//118
f 136//136 118//118 117//117
f 137//137 138//138 119//119
f 137//137 119//119 118//118
f 138//138 139//139 120//120
f 138//138 120//120 119//119
f 139//139 140//140 121//121
f 139//139 121//121 120//120
f 140//140 141//141 122//122
f 140//140 122//122 121//121
f 141//141 142//142 123//123
f 141//141 123//123 122//122
f 142//142 143//143 124//124
f 142//142 124//124 123//123
f 143//143 144//144 125//125
f 143//143 125//125 124//124
f 144//144 145//145 126//126
f 144//144 126//126 125//125
f 145//145 146//146 127//127
f 145//145 127//127 126//126
f 146//146 147//147 128//128
f 146//146 128//128 127//127
f 147//147 148//148 129//129
f 147//147 129//129 128//128
f 148//148 149//149 130//130
f 148//148 130//130 129//129
f 149//149 150//150 131//131
f 149//149 131//131 130//130
f 150//150 151//151 132//132
f 150//150 132//132 131//131
f 151//151 152//152 133//133
f 151//151 133//133 132//132
f 152//152 153//153 134//134
f 152//152 134//134 133//133
f 153//153 154//154 135//135
f 153//153 135//135 134//134
f 154//154 21//21 135//135
f 155//155 136//136 1//1
f 155//155 156//156 137//137
f 155//155 137//137 136//136
f 156//156 157//157 138//138
f 156//156 138//138 137//137
f 157//157 158//158 139//139
f 157//157 139//139 138//138
f 158//158 159//159 140//140
f 158//158 140//140 139//139
f 159//159 160//160 141//141
f 159//159 141//141 140//140
f 160//160 161//161 142//142
f 160//160 142//142 141//141
f 161//161 162//162 143//143
f 161//161 143//143 142//142
f 162//162 163//163 144//144
f 162//162 144//144 143//143
f 163//163 164//164 145//145
f 163//163 145//145 144//144
f 164//164 165//165 146//146
f 164//164 146//146 145//145
f 165//165 166//166 147//147
f 165//165 147//147 146//146
f 166//166 167//167 148//148
f 166//166 148//148 147//147
f 167//167 168//168 149//149
f 167//167 149//149 148//148
f 168//168 169//169 150//150
f 168//168 150//150 149//149
f 169//169 170//170 151//151
f 169//169 151//151 150//150
f 170//170 171//171 152//152
f 170//170 152//152 151//151
f 171//171 172//172 153//153
f 171//171 153//153 152//152
f 172//172 173//173 154//154
f 172//172 154//154 153//153
f 173//173 21//21 154//154
f 174//174 155//155 1//1
f 174//174 175//175 156//156
f 174//174 156//156 155//155
f 175//175 176//176 157//157
f 175//175 157//157 156//156
f 176//176 177//177 158//158
f 176//176 158//158 157//157
f 177//177 178//178 159//159
f 177//177 159//159 158//158
f 179//179 180//180 161//161
f 179//179 161//161 160//160
f 180//180 181//181 162//162
f 180//180 162//162 161//161
f 181//181 182//182 163//163
f 181//181 163//163 162//162
f 182//182 183//183 164//164
f 182//182 164//164 163//163
f 183//183 184//184 165//165
f 183//183 165//165 164//164
f 184//184 185//185 166//166
f 184//184 166//166 165//165
f 185//185 186//186 167//167
f 185//185 167//167 166//166
f 186//186 187//187 168//168
f 186//186 168//168 167//167
f 187//187 188//188 169//169
f 187//187 169//169 168//168
f 189//189 190//190 171//171
f 189//189 171//171 170//170
f 190//190 191//191 172//172
f 190//190 172//172 171//171
f 191//191 192//192 173//173
f 191//191 173//173 172//172
f 192//192 21//21 173//173
f 2//2 174//174 1//1
f 2//2 3//3 175//175
f 2//2 175//175 174//174
f 3//3 4//4 176//176
f 3//3 176//176 175//175
f 5//5 6//6 178//178
f 5//5 178//178 177//177
f 6//6 7//7 179//179
f 6//6 179//179 178//178
f 7//7 8//8 180//180
f 7//7 180//180 179//179
f 8//8 9//9 181//181
f 8//8 181//181 180//180
f 9//9 10//10 182//182
f 9//9 182//182 181//181
f 10//10 11//11 183//183
f 10//10 183//183 182//182
f 11//11 12//12 184//184
f 11//11 184//184 183//183
f 12//12 13//13 185//185
f 12//12 185//185 184//184
f 13//13 14//14 186//186
f 13//13 186//186 185//185
f 14//14 15//15 187//187
f 14//14 187//187 186//186
f 15//15 16//16 188//188
f 15//15 188//188 187//187
f 16//16 17//17 189//189
f 16//16 189//189 188//188
f 17//17 18//18 190//190
f 17//17 190//190 189//189
f 18//18 19//19 191//191
f 18//18 191//191 190//190
f 19//19 20//20 192//192
f 19//19 192//192 191//191
f 20//20 21//21 192//192
# 370 faces, 0 coords texture

# End of File